<?xml version="1.0" encoding="utf-8"?>
<!-- Generator: Adobe Illustrator 26.0.1, SVG Export Plug-In . SVG Version: 6.00 Build 0)  -->
<svg version="1.1" id="Layer_1" xmlns="http://www.w3.org/2000/svg" xmlns:xlink="http://www.w3.org/1999/xlink" x="0px" y="0px"
	 viewBox="0 0 180 252" style="enable-background:new 0 0 180 252;" xml:space="preserve">
<style type="text/css">
	.st0{fill:#9BAACF;}
	.st1{fill:none;stroke:#8ABDFF;stroke-width:4;stroke-miterlimit:3;}
</style>
<path class="st0" d="M170.2,251.3L9,251.2c-5,0-9-4-9-9L0,9c0-5,4-9,9-9l161.2,0c5,0,9,4,9,9l0,233.2
	C179.2,247.2,175.2,251.3,170.2,251.3z"/>
<text transform="matrix(1 0 0 1 443.002 0.375)" style="font-family:'JuniperStd'; font-size:24.288px;">S&amp;CO TM LLC</text>
<path class="st1" d="M448,516.1l378-227l-363,303l326-198L426,503.6c0,0,489,57.5,486,58.5s-336-320-336-320l-14,440l-16-432
	c0,0,94,417,94,418s19-416,19-416l41,384l-5-353l-40,373l-45-445"/>
</svg>
